<?xml version="1.0" standalone="no"?>
<!DOCTYPE svg PUBLIC "-//W3C//DTD SVG 20010904//EN"
 "http://www.w3.org/TR/2001/REC-SVG-20010904/DTD/svg10.dtd">
<svg version="1.0" xmlns="http://www.w3.org/2000/svg"
 width="256.000000pt" height="256.000000pt" viewBox="0 0 256.000000 256.000000"
 preserveAspectRatio="xMidYMid meet">
<metadata>
Created by potrace 1.11, written by Peter Selinger 2001-2013
</metadata>
<g transform="translate(0.000000,256.000000) scale(0.100000,-0.100000)"
fill="#000000" stroke="none">
<path d="M0 1280 l0 -1280 1280 0 1280 0 0 1280 0 1280 -1280 0 -1280 0 0
-1280z m1940 798 c85 -43 135 -155 110 -246 -7 -26 -114 -195 -281 -445 -149
-221 -344 -511 -433 -644 -88 -133 -164 -241 -168 -240 -4 1 -143 141 -309
312 -314 323 -349 367 -349 446 0 85 47 159 124 195 114 53 161 33 338 -143
76 -76 140 -135 143 -132 3 3 129 190 280 415 151 225 287 422 302 438 62 66
163 84 243 44z"/>
</g>
</svg>
